<?xml version="1.0" standalone="no"?>
<!DOCTYPE svg PUBLIC "-//W3C//DTD SVG 20010904//EN"
 "http://www.w3.org/TR/2001/REC-SVG-20010904/DTD/svg10.dtd">
<svg version="1.0" xmlns="http://www.w3.org/2000/svg"
 width="700.000000pt" height="700.000000pt" viewBox="0 0 700.000000 700.000000"
 preserveAspectRatio="xMidYMid meet">
<metadata>
Created by potrace 1.14, written by Peter Selinger 2001-2017
</metadata>
<g transform="translate(0.000000,700.000000) scale(0.100000,-0.100000)"
fill="#000000" stroke="none">
<path d="M3279 6996 c-2 -2 -48 -7 -102 -10 -53 -4 -103 -9 -110 -11 -6 -2
-34 -6 -62 -9 -27 -3 -75 -10 -105 -16 -30 -6 -68 -13 -85 -16 -141 -25 -375
-90 -532 -149 -482 -180 -888 -440 -1254 -805 -289 -288 -500 -581 -673 -935
-57 -117 -155 -350 -160 -379 -1 -6 -4 -15 -8 -21 -32 -53 -139 -503 -154
-647 -3 -35 -8 -65 -9 -68 -18 -32 -27 -593 -12 -740 15 -140 44 -324 71 -445
26 -118 96 -354 122 -412 8 -17 14 -35 14 -40 0 -23 86 -219 164 -373 73 -145
227 -393 303 -490 153 -195 353 -412 498 -541 392 -346 905 -619 1415 -752 99
-26 270 -63 330 -71 252 -35 325 -41 560 -41 227 1 338 8 510 35 179 28 181
28 335 66 782 194 1478 661 1964 1317 116 157 194 284 322 527 22 41 79 168
79 175 0 3 9 24 19 48 47 106 139 384 155 467 2 14 13 63 24 110 12 47 23 104
26 128 3 24 7 46 10 50 2 4 6 34 10 67 3 33 8 71 11 85 25 131 26 663 1 810
-2 14 -7 48 -11 75 -17 126 -18 133 -40 240 -69 330 -185 643 -363 978 -50 94
-165 270 -256 390 -381 509 -869 891 -1456 1140 -141 60 -423 151 -533 173
-10 2 -26 5 -35 8 -17 5 -25 7 -122 25 -88 17 -110 20 -195 31 -44 6 -96 13
-115 16 -42 6 -545 15 -551 10z m511 -159 c14 -3 54 -8 90 -12 472 -43 1032
-249 1465 -538 70 -47 247 -179 273 -205 10 -9 46 -41 80 -70 89 -77 216 -204
297 -297 39 -44 72 -82 75 -85 32 -32 185 -246 251 -351 239 -383 411 -847
469 -1271 6 -43 13 -92 15 -110 25 -179 25 -617 1 -768 -5 -30 -15 -100 -21
-155 -14 -115 -82 -384 -137 -545 -185 -537 -507 -1024 -928 -1402 -245 -220
-568 -431 -850 -556 -41 -19 -84 -38 -95 -43 -142 -62 -447 -158 -590 -183
-16 -3 -41 -8 -55 -11 -65 -13 -209 -37 -245 -40 -176 -16 -242 -19 -400 -19
-162 0 -283 6 -385 19 -19 3 -55 7 -80 10 -25 3 -56 7 -70 10 -32 7 -48 10
-145 29 -253 49 -547 151 -805 280 -128 64 -337 186 -400 234 -19 15 -57 42
-83 60 -26 18 -58 41 -70 51 -12 11 -62 52 -112 93 -369 307 -691 734 -891
1182 -102 228 -189 499 -227 706 -28 151 -39 224 -53 355 -10 91 -11 485 -1
600 8 95 42 326 57 385 5 19 11 48 14 63 10 55 76 283 109 377 77 213 187 443
302 629 57 92 190 281 235 335 195 231 367 402 540 536 25 19 47 37 50 40 3 4
48 36 100 72 277 192 570 339 885 443 103 34 362 101 425 109 19 3 80 12 135
20 55 8 132 18 170 22 39 3 71 7 73 9 5 5 506 -3 532 -8z"/>
<path d="M3463 6609 c-126 -26 -168 -180 -71 -261 38 -33 53 -36 223 -43 72
-2 153 -7 180 -11 71 -8 287 -44 295 -49 4 -2 22 -7 41 -10 135 -23 447 -138
628 -230 157 -80 416 -248 496 -322 11 -10 52 -45 90 -78 353 -306 649 -753
802 -1214 36 -109 88 -313 98 -384 3 -23 8 -55 11 -72 29 -164 39 -547 19
-710 -66 -557 -265 -1042 -602 -1465 -64 -80 -281 -305 -368 -381 -145 -126
-386 -284 -580 -379 -198 -97 -378 -161 -599 -215 -93 -22 -125 -28 -211 -40
-16 -3 -40 -7 -51 -9 -136 -28 -552 -28 -754 0 -445 61 -890 238 -1250 498
-94 67 -253 198 -314 259 -73 72 -122 92 -183 75 -95 -25 -143 -134 -94 -214
19 -32 105 -117 197 -195 357 -306 789 -533 1221 -643 117 -29 153 -38 173
-42 8 -2 31 -6 50 -10 59 -12 64 -13 115 -20 28 -4 61 -8 75 -10 191 -26 621
-26 780 0 14 3 43 7 65 10 337 46 711 172 1039 351 729 399 1284 1103 1496
1899 35 132 69 292 76 361 3 28 7 56 9 63 26 77 27 654 0 790 -2 11 -6 43 -10
73 -4 30 -8 56 -10 59 -2 3 -6 26 -10 50 -11 83 -84 348 -130 473 -158 437
-398 813 -729 1142 -297 296 -622 513 -1003 671 -210 87 -468 162 -653 189
-24 4 -47 8 -50 10 -3 2 -40 7 -81 10 -40 4 -81 9 -89 11 -8 3 -73 8 -145 10
-71 3 -137 6 -145 8 -8 1 -30 -1 -47 -5z"/>
<path d="M3315 5560 c-16 -4 -46 -15 -65 -24 -19 -10 -213 -196 -430 -412
l-396 -395 -22 24 -22 23 150 150 c170 168 200 209 202 280 5 150 -163 251
-286 174 -52 -32 -884 -873 -896 -905 -24 -64 -8 -151 36 -201 53 -60 146 -80
220 -49 22 9 107 85 211 187 95 95 176 175 178 177 3 3 15 -6 26 -18 l22 -23
-391 -392 c-214 -215 -398 -407 -408 -426 -9 -19 -19 -61 -20 -94 -8 -175 151
-299 321 -249 46 14 80 45 445 409 218 217 399 394 403 394 5 0 352 -344 772
-763 l763 -764 -415 -414 c-235 -235 -423 -431 -435 -453 -28 -55 -34 -132
-14 -194 51 -152 248 -215 376 -120 14 11 208 202 432 425 l407 406 30 -31
c17 -17 31 -34 31 -37 0 -4 -76 -83 -169 -177 -180 -179 -201 -210 -195 -290
7 -95 94 -178 186 -178 90 0 87 -2 545 456 277 277 439 446 448 469 41 96 -2
209 -95 253 -43 21 -125 21 -165 0 -16 -9 -106 -91 -198 -183 l-168 -168 -35
34 -34 33 369 371 c203 203 376 385 386 404 21 42 27 111 14 173 -8 34 -23 62
-55 97 -69 76 -160 102 -259 74 -46 -14 -79 -44 -427 -391 l-378 -376 -767
767 -768 767 397 398 c218 218 404 413 414 432 25 49 25 162 0 212 -49 99
-169 160 -271 138z"/>
</g>
</svg>
